<?xml version="1.0" standalone="no"?>
<!DOCTYPE svg PUBLIC "-//W3C//DTD SVG 20010904//EN"
 "http://www.w3.org/TR/2001/REC-SVG-20010904/DTD/svg10.dtd">
<svg version="1.0" xmlns="http://www.w3.org/2000/svg"
 width="512.000000pt" height="512.000000pt" viewBox="0 0 512.000000 512.000000"
 preserveAspectRatio="xMidYMid meet">
<metadata>
Created by potrace 1.16, written by Peter Selinger 2001-2019
</metadata>
<g transform="translate(0.000000,512.000000) scale(0.100000,-0.100000)"
fill="#000000" stroke="none">
<path d="M0 2560 l0 -2560 2560 0 2560 0 0 2560 0 2560 -2560 0 -2560 0 0
-2560z m2320 -1000 l0 -40 120 0 120 0 0 -40 0 -40 40 0 c40 0 40 0 40 39 l0
38 105 5 c57 3 129 3 160 0 l55 -4 0 -39 c0 -39 0 -39 40 -39 l40 0 0 -160 0
-160 80 0 80 0 0 -40 0 -40 40 0 40 0 0 -120 0 -120 -40 0 -40 0 0 -40 0 -40
-40 0 -40 0 0 -40 0 -40 -40 0 -40 0 0 -120 0 -120 -34 0 c-35 0 -46 -12 -46
-55 0 -19 -7 -24 -40 -29 -38 -6 -40 -8 -40 -41 l0 -35 -80 0 -80 0 0 40 0 40
-160 0 -160 0 0 -40 0 -40 -80 0 -80 0 0 34 c0 36 -12 46 -56 46 -21 0 -24 4
-24 40 l0 40 -40 0 -40 0 0 120 0 120 -40 0 -40 0 0 40 0 40 -40 0 -40 0 0 40
0 40 -40 0 -40 0 0 120 0 120 40 0 40 0 0 40 0 40 80 0 80 0 0 160 0 160 40 0
40 0 0 40 0 40 40 0 40 0 0 40 0 40 40 0 40 0 0 -40z"/>
<path d="M2800 1400 l0 -40 -40 0 -40 0 0 -80 0 -80 80 0 80 0 0 120 0 120
-40 0 -40 0 0 -40z"/>
<path d="M2240 1280 l0 -80 80 0 80 0 0 80 0 80 -80 0 -80 0 0 -80z"/>
<path d="M2080 1000 l0 -40 -40 0 -40 0 0 -40 0 -40 40 0 40 0 0 -40 0 -40 40
0 40 0 0 120 0 120 -40 0 -40 0 0 -40z"/>
<path d="M2960 920 l0 -120 40 0 40 0 0 40 0 40 40 0 40 0 0 40 0 40 -40 0
-40 0 0 40 0 40 -40 0 -40 0 0 -120z"/>
<path d="M2240 520 l0 -120 40 0 40 0 0 40 0 40 40 0 40 0 0 40 0 40 -40 0
-40 0 0 40 0 40 -40 0 -40 0 0 -120z"/>
<path d="M2800 600 l0 -40 -40 0 -40 0 0 -40 0 -40 40 0 40 0 0 -40 0 -40 40
0 40 0 0 120 0 120 -40 0 -40 0 0 -40z"/>
</g>
</svg>
